<?xml version="1.0" standalone="no"?>
<!DOCTYPE svg PUBLIC "-//W3C//DTD SVG 20010904//EN"
 "http://www.w3.org/TR/2001/REC-SVG-20010904/DTD/svg10.dtd">
<svg version="1.0" xmlns="http://www.w3.org/2000/svg"
 width="84.000000pt" height="113.000000pt" viewBox="0 0 84.000000 113.000000"
 preserveAspectRatio="xMidYMid meet">

<g transform="translate(0.000000,113.000000) scale(0.100000,-0.100000)"
fill="#000000" stroke="none">
<path d="M288 1101 c-152 -49 -249 -154 -280 -305 -23 -109 17 -244 129 -434
73 -126 211 -333 231 -350 20 -16 73 -16 95 1 29 22 227 339 286 459 90 180
102 294 44 416 -85 180 -310 275 -505 213z m242 -47 c182 -54 279 -219 240
-406 -19 -86 -105 -253 -229 -440 -83 -128 -108 -158 -126 -158 -18 0 -43 30
-126 158 -122 184 -213 359 -230 440 -28 138 20 277 122 348 102 71 233 93
349 58z"/>
<path d="M341 768 c-28 -45 -54 -98 -57 -117 -14 -74 65 -157 140 -148 50 7
86 33 110 81 16 33 17 43 6 79 -12 44 -59 126 -94 165 -34 38 -51 28 -105 -60z
m118 -43 c50 -85 52 -114 10 -149 -39 -33 -78 -33 -114 0 -24 22 -27 31 -22
65 4 31 75 164 84 156 1 -1 20 -34 42 -72z"/>
</g>
</svg>
